@startuml estado
[*]--> Provisional
Provisional : do/ Calcular precio total
Provisional --> Provisional : reservarotra()
Provisional --> Realizada : calcularPrecio() [ok]
Provisional --> Cancelada: cancelar()
Realizada --> Confirmada : verificar() [saldo>=precio]
Realizada --> Denegada: verificar() [saldo<precio]
Confirmada --> Cancelada : cancelar()
Denegada --> Provisional : reintentar()
Denegada --> Cancelada : desistir()
Denegada --> [*]
Cancelada --> [*]
@endumlov